solid hex_valve
  facet normal 0 0 1
    outer loop
      vertex 0 0 0.04
      vertex 0.03 0 0.04
      vertex 0.015 0.025980762 0.04
    endloop
  endfacet
  facet normal 0 0 1
    outer loop
      vertex 0 0 0.04
      vertex 0.015 0.025980762 0.04
      vertex -0.015 0.025980762 0.04
    endloop
  endfacet
  facet normal 0 0 1
    outer loop
      vertex 0 0 0.04
      vertex -0.015 0.025980762 0.04
      vertex -0.03 0 0.04
    endloop
  endfacet
  facet normal 0 0 1
    outer loop
      vertex 0 0 0.04
      vertex -0.03 0 0.04
      vertex -0.015 -0.025980762 0.04
    endloop
  endfacet
  facet normal 0 0 1
    outer loop
      vertex 0 0 0.04
      vertex -0.015 -0.025980762 0.04
      vertex 0.015 -0.025980762 0.04
    endloop
  endfacet
  facet normal 0 0 1
    outer loop
      vertex 0 0 0.04
      vertex 0.015 -0.025980762 0.04
      vertex 0.03 0 0.04
    endloop
  endfacet
  facet normal 0 0 -1
    outer loop
      vertex 0 0 -0.04
      vertex 0.015 0.025980762 -0.04
      vertex 0.03 0 -0.04
    endloop
  endfacet
  facet normal 0 0 -1
    outer loop
      vertex 0 0 -0.04
      vertex -0.015 0.025980762 -0.04
      vertex 0.015 0.025980762 -0.04
    endloop
  endfacet
  facet normal 0 0 -1
    outer loop
      vertex 0 0 -0.04
      vertex -0.03 0 -0.04
      vertex -0.015 0.025980762 -0.04
    endloop
  endfacet
  facet normal 0 0 -1
    outer loop
      vertex 0 0 -0.04
      vertex -0.015 -0.025980762 -0.04
      vertex -0.03 0 -0.04
    endloop
  endfacet
  facet normal 0 0 -1
    outer loop
      vertex 0 0 -0.04
      vertex 0.015 -0.025980762 -0.04
      vertex -0.015 -0.025980762 -0.04
    endloop
  endfacet
  facet normal 0 0 -1
    outer loop
      vertex 0 0 -0.04
      vertex 0.03 0 -0.04
      vertex 0.015 -0.025980762 -0.04
    endloop
  endfacet
  facet normal 0.8660254 0.5 0
    outer loop
      vertex 0.03 0 -0.04
      vertex 0.015 0.025980762 -0.04
      vertex 0.015 0.025980762 0.04
    endloop
  endfacet
  facet normal 0.8660254 0.5 0
    outer loop
      vertex 0.03 0 -0.04
      vertex 0.015 0.025980762 0.04
      vertex 0.03 0 0.04
    endloop
  endfacet
  facet normal 0 1 0
    outer loop
      vertex 0.015 0.025980762 -0.04
      vertex -0.015 0.025980762 -0.04
      vertex -0.015 0.025980762 0.04
    endloop
  endfacet
  facet normal 0 1 0
    outer loop
      vertex 0.015 0.025980762 -0.04
      vertex -0.015 0.025980762 0.04
      vertex 0.015 0.025980762 0.04
    endloop
  endfacet
  facet normal -0.8660254 0.5 0
    outer loop
      vertex -0.015 0.025980762 -0.04
      vertex -0.03 0 -0.04
      vertex -0.03 0 0.04
    endloop
  endfacet
  facet normal -0.8660254 0.5 0
    outer loop
      vertex -0.015 0.025980762 -0.04
      vertex -0.03 0 0.04
      vertex -0.015 0.025980762 0.04
    endloop
  endfacet
  facet normal -0.8660254 -0.5 0
    outer loop
      vertex -0.03 0 -0.04
      vertex -0.015 -0.025980762 -0.04
      vertex -0.015 -0.025980762 0.04
    endloop
  endfacet
  facet normal -0.8660254 -0.5 0
    outer loop
      vertex -0.03 0 -0.04
      vertex -0.015 -0.025980762 0.04
      vertex -0.03 0 0.04
    endloop
  endfacet
  facet normal 0 -1 0
    outer loop
      vertex -0.015 -0.025980762 -0.04
      vertex 0.015 -0.025980762 -0.04
      vertex 0.015 -0.025980762 0.04
    endloop
  endfacet
  facet normal 0 -1 0
    outer loop
      vertex -0.015 -0.025980762 -0.04
      vertex 0.015 -0.025980762 0.04
      vertex -0.015 -0.025980762 0.04
    endloop
  endfacet
  facet normal 0.8660254 -0.5 0
    outer loop
      vertex 0.015 -0.025980762 -0.04
      vertex 0.03 0 -0.04
      vertex 0.03 0 0.04
    endloop
  endfacet
  facet normal 0.8660254 -0.5 0
    outer loop
      vertex 0.015 -0.025980762 -0.04
      vertex 0.03 0 0.04
      vertex 0.015 -0.025980762 0.04
    endloop
  endfacet
endsolid hex_valve
